<?xml version="1.0" encoding="UTF-8" standalone="no"?>
<!DOCTYPE svg PUBLIC "-//W3C//DTD SVG 1.1//EN"
 "http://www.w3.org/Graphics/SVG/1.1/DTD/svg11.dtd">
<!-- Generated by graphviz version 2.38.0 (20140413.2041)
 -->
<!-- Title: G Pages: 1 -->
<svg width="528pt" height="402pt"
 viewBox="0.00 0.00 528.00 402.00" xmlns="http://www.w3.org/2000/svg" xmlns:xlink="http://www.w3.org/1999/xlink">
<g id="graph0" class="graph" transform="scale(1 1) rotate(0) translate(4 398)">
<title>G</title>
<polygon fill="white" stroke="none" points="-4,4 -4,-398 524,-398 524,4 -4,4"/>
<g id="clust1" class="cluster"><title>cluster_Global</title>
<path fill="none" stroke="gray" d="M20,-8C20,-8 500,-8 500,-8 506,-8 512,-14 512,-20 512,-20 512,-374 512,-374 512,-380 506,-386 500,-386 500,-386 20,-386 20,-386 14,-386 8,-380 8,-374 8,-374 8,-20 8,-20 8,-14 14,-8 20,-8"/>
<text text-anchor="middle" x="260" y="-373.2" font-family="Times,serif" font-size="11.00" fill="gray">Global</text>
</g>
<g id="clust2" class="cluster"><title>cluster_\SSamnaniLib</title>
<path fill="none" stroke="gray" d="M28,-16C28,-16 492,-16 492,-16 498,-16 504,-22 504,-28 504,-28 504,-346 504,-346 504,-352 498,-358 492,-358 492,-358 28,-358 28,-358 22,-358 16,-352 16,-346 16,-346 16,-28 16,-28 16,-22 22,-16 28,-16"/>
<text text-anchor="middle" x="260" y="-345.2" font-family="Times,serif" font-size="11.00" fill="gray">SSamnaniLib</text>
</g>
<g id="clust3" class="cluster"><title>cluster_\SSamnaniLib\Processor</title>
<path fill="none" stroke="gray" d="M283,-150C283,-150 481,-150 481,-150 487,-150 493,-156 493,-162 493,-162 493,-318 493,-318 493,-324 487,-330 481,-330 481,-330 283,-330 283,-330 277,-330 271,-324 271,-318 271,-318 271,-162 271,-162 271,-156 277,-150 283,-150"/>
<text text-anchor="middle" x="382" y="-317.2" font-family="Times,serif" font-size="11.00" fill="gray">Processor</text>
</g>
<g id="clust4" class="cluster"><title>cluster_\SSamnaniLib\Output</title>
<path fill="none" stroke="gray" d="M36,-70C36,-70 484,-70 484,-70 490,-70 496,-76 496,-82 496,-82 496,-130 496,-130 496,-136 490,-142 484,-142 484,-142 36,-142 36,-142 30,-142 24,-136 24,-130 24,-130 24,-82 24,-82 24,-76 30,-70 36,-70"/>
<text text-anchor="middle" x="260" y="-129.2" font-family="Times,serif" font-size="11.00" fill="gray">Output</text>
</g>
<!-- \\SSamnaniLib\\Processor\\UppercaseStringProcessor -->
<g id="node1" class="node"><title>\\SSamnaniLib\\Processor\\UppercaseStringProcessor</title>
<polygon fill="none" stroke="black" points="471.5,-302 292.5,-302 292.5,-266 471.5,-266 471.5,-302"/>
<text text-anchor="middle" x="382" y="-281.2" font-family="Courier,monospace" font-size="11.00">UppercaseStringProcessor</text>
</g>
<!-- \\SSamnaniLib\\IStringProcessor -->
<g id="node7" class="node"><title>\\SSamnaniLib\\IStringProcessor</title>
<polygon fill="none" stroke="black" points="180.5,-248 55.5,-248 55.5,-212 180.5,-212 180.5,-248"/>
<text text-anchor="middle" x="118" y="-227.2" font-family="Courier,monospace" font-size="11.00">IStringProcessor</text>
</g>
<!-- \\SSamnaniLib\\Processor\\UppercaseStringProcessor&#45;&gt;\\SSamnaniLib\\IStringProcessor -->
<g id="edge1" class="edge"><title>\\SSamnaniLib\\Processor\\UppercaseStringProcessor&#45;&gt;\\SSamnaniLib\\IStringProcessor</title>
<path fill="none" stroke="black" stroke-dasharray="1,5" d="M293.394,-265.944C260.104,-259.082 222.599,-251.353 190.924,-244.824"/>
<polygon fill="none" stroke="black" points="191.358,-241.34 180.857,-242.749 189.945,-248.196 191.358,-241.34"/>
</g>
<!-- \\SSamnaniLib\\Processor\\AlternateCaseStringProcessor -->
<g id="node2" class="node"><title>\\SSamnaniLib\\Processor\\AlternateCaseStringProcessor</title>
<polygon fill="none" stroke="black" points="485,-248 279,-248 279,-212 485,-212 485,-248"/>
<text text-anchor="middle" x="382" y="-227.2" font-family="Courier,monospace" font-size="11.00">AlternateCaseStringProcessor</text>
</g>
<!-- \\SSamnaniLib\\Processor\\AlternateCaseStringProcessor&#45;&gt;\\SSamnaniLib\\IStringProcessor -->
<g id="edge2" class="edge"><title>\\SSamnaniLib\\Processor\\AlternateCaseStringProcessor&#45;&gt;\\SSamnaniLib\\IStringProcessor</title>
<path fill="none" stroke="black" stroke-dasharray="1,5" d="M278.954,-230C249.523,-230 218.04,-230 190.857,-230"/>
<polygon fill="none" stroke="black" points="190.663,-226.5 180.663,-230 190.663,-233.5 190.663,-226.5"/>
</g>
<!-- \\SSamnaniLib\\Processor\\BasicStringProcessor -->
<g id="node3" class="node"><title>\\SSamnaniLib\\Processor\\BasicStringProcessor</title>
<polygon fill="none" stroke="black" points="458,-194 306,-194 306,-158 458,-158 458,-194"/>
<text text-anchor="middle" x="382" y="-173.2" font-family="Courier,monospace" font-size="11.00">BasicStringProcessor</text>
</g>
<!-- \\SSamnaniLib\\Processor\\BasicStringProcessor&#45;&gt;\\SSamnaniLib\\IStringProcessor -->
<g id="edge3" class="edge"><title>\\SSamnaniLib\\Processor\\BasicStringProcessor&#45;&gt;\\SSamnaniLib\\IStringProcessor</title>
<path fill="none" stroke="black" stroke-dasharray="1,5" d="M305.921,-191.474C269.708,-198.938 226.477,-207.848 190.715,-215.219"/>
<polygon fill="none" stroke="black" points="189.926,-211.808 180.839,-217.255 191.34,-218.664 189.926,-211.808"/>
</g>
<!-- \\SSamnaniLib\\Output\\StandardOutputStringProcessor -->
<g id="node4" class="node"><title>\\SSamnaniLib\\Output\\StandardOutputStringProcessor</title>
<polygon fill="none" stroke="black" points="488,-114 276,-114 276,-78 488,-78 488,-114"/>
<text text-anchor="middle" x="382" y="-93.2" font-family="Courier,monospace" font-size="11.00">StandardOutputStringProcessor</text>
</g>
<!-- \\SSamnaniLib\\Output\\AbstractOutputProcessor -->
<g id="node5" class="node"><title>\\SSamnaniLib\\Output\\AbstractOutputProcessor</title>
<polygon fill="none" stroke="black" points="204,-114 32,-114 32,-78 204,-78 204,-114"/>
<text text-anchor="start" x="84" y="-99.2" font-family="Courier,monospace" font-size="11.00">«abstract»</text>
<text text-anchor="start" x="40" y="-87.2" font-family="Courier,monospace" font-size="11.00">AbstractOutputProcessor</text>
</g>
<!-- \\SSamnaniLib\\Output\\StandardOutputStringProcessor&#45;&gt;\\SSamnaniLib\\Output\\AbstractOutputProcessor -->
<g id="edge4" class="edge"><title>\\SSamnaniLib\\Output\\StandardOutputStringProcessor&#45;&gt;\\SSamnaniLib\\Output\\AbstractOutputProcessor</title>
<path fill="none" stroke="black" d="M275.944,-96C255.606,-96 234.398,-96 214.39,-96"/>
<polygon fill="none" stroke="black" points="214.361,-92.5001 204.361,-96 214.361,-99.5001 214.361,-92.5001"/>
</g>
<!-- \\SSamnaniLib\\HelloWorld -->
<g id="node6" class="node"><title>\\SSamnaniLib\\HelloWorld</title>
<polygon fill="none" stroke="black" points="424,-60 340,-60 340,-24 424,-24 424,-60"/>
<text text-anchor="middle" x="382" y="-39.2" font-family="Courier,monospace" font-size="11.00">HelloWorld</text>
</g>
</g>
</svg>
