<?xml version="1.0" encoding="UTF-8" standalone="no"?>
<!DOCTYPE svg PUBLIC "-//W3C//DTD SVG 1.1//EN"
 "http://www.w3.org/Graphics/SVG/1.1/DTD/svg11.dtd">
<!-- Generated by graphviz version 2.38.0 (20140413.2041)
 -->
<!-- Title: G Pages: 1 -->
<svg width="528pt" height="294pt"
 viewBox="0.00 0.00 528.00 294.00" xmlns="http://www.w3.org/2000/svg" xmlns:xlink="http://www.w3.org/1999/xlink">
<g id="graph0" class="graph" transform="scale(1 1) rotate(0) translate(4 290)">
<title>G</title>
<polygon fill="white" stroke="none" points="-4,4 -4,-290 524,-290 524,4 -4,4"/>
<g id="clust1" class="cluster"><title>cluster_Global</title>
<path fill="none" stroke="gray" d="M20,-8C20,-8 500,-8 500,-8 506,-8 512,-14 512,-20 512,-20 512,-266 512,-266 512,-272 506,-278 500,-278 500,-278 20,-278 20,-278 14,-278 8,-272 8,-266 8,-266 8,-20 8,-20 8,-14 14,-8 20,-8"/>
<text text-anchor="middle" x="260" y="-265.2" font-family="Times,serif" font-size="11.00" fill="gray">Global</text>
</g>
<g id="clust2" class="cluster"><title>cluster_\SSamnaniLib</title>
<path fill="none" stroke="gray" d="M28,-16C28,-16 492,-16 492,-16 498,-16 504,-22 504,-28 504,-28 504,-238 504,-238 504,-244 498,-250 492,-250 492,-250 28,-250 28,-250 22,-250 16,-244 16,-238 16,-238 16,-28 16,-28 16,-22 22,-16 28,-16"/>
<text text-anchor="middle" x="260" y="-237.2" font-family="Times,serif" font-size="11.00" fill="gray">SSamnaniLib</text>
</g>
<g id="clust3" class="cluster"><title>cluster_\SSamnaniLib\Processor</title>
<path fill="none" stroke="gray" d="M310,-150C310,-150 454,-150 454,-150 460,-150 466,-156 466,-162 466,-162 466,-210 466,-210 466,-216 460,-222 454,-222 454,-222 310,-222 310,-222 304,-222 298,-216 298,-210 298,-210 298,-162 298,-162 298,-156 304,-150 310,-150"/>
<text text-anchor="middle" x="382" y="-209.2" font-family="Times,serif" font-size="11.00" fill="gray">Processor</text>
</g>
<g id="clust4" class="cluster"><title>cluster_\SSamnaniLib\Output</title>
<path fill="none" stroke="gray" d="M36,-70C36,-70 484,-70 484,-70 490,-70 496,-76 496,-82 496,-82 496,-130 496,-130 496,-136 490,-142 484,-142 484,-142 36,-142 36,-142 30,-142 24,-136 24,-130 24,-130 24,-82 24,-82 24,-76 30,-70 36,-70"/>
<text text-anchor="middle" x="260" y="-129.2" font-family="Times,serif" font-size="11.00" fill="gray">Output</text>
</g>
<!-- \\SSamnaniLib\\Processor\\BasicStringProcessor -->
<g id="node1" class="node"><title>\\SSamnaniLib\\Processor\\BasicStringProcessor</title>
<polygon fill="none" stroke="black" points="458,-194 306,-194 306,-158 458,-158 458,-194"/>
<text text-anchor="middle" x="382" y="-173.2" font-family="Courier,monospace" font-size="11.00">BasicStringProcessor</text>
</g>
<!-- \\SSamnaniLib\\IStringProcessor -->
<g id="node5" class="node"><title>\\SSamnaniLib\\IStringProcessor</title>
<polygon fill="none" stroke="black" points="180.5,-194 55.5,-194 55.5,-158 180.5,-158 180.5,-194"/>
<text text-anchor="middle" x="118" y="-173.2" font-family="Courier,monospace" font-size="11.00">IStringProcessor</text>
</g>
<!-- \\SSamnaniLib\\Processor\\BasicStringProcessor&#45;&gt;\\SSamnaniLib\\IStringProcessor -->
<g id="edge1" class="edge"><title>\\SSamnaniLib\\Processor\\BasicStringProcessor&#45;&gt;\\SSamnaniLib\\IStringProcessor</title>
<path fill="none" stroke="black" stroke-dasharray="1,5" d="M305.921,-176C269.863,-176 226.846,-176 191.174,-176"/>
<polygon fill="none" stroke="black" points="190.839,-172.5 180.839,-176 190.839,-179.5 190.839,-172.5"/>
</g>
<!-- \\SSamnaniLib\\Output\\StandardOutputStringProcessor -->
<g id="node2" class="node"><title>\\SSamnaniLib\\Output\\StandardOutputStringProcessor</title>
<polygon fill="none" stroke="black" points="488,-114 276,-114 276,-78 488,-78 488,-114"/>
<text text-anchor="middle" x="382" y="-93.2" font-family="Courier,monospace" font-size="11.00">StandardOutputStringProcessor</text>
</g>
<!-- \\SSamnaniLib\\Output\\AbstractOutputProcessor -->
<g id="node3" class="node"><title>\\SSamnaniLib\\Output\\AbstractOutputProcessor</title>
<polygon fill="none" stroke="black" points="204,-114 32,-114 32,-78 204,-78 204,-114"/>
<text text-anchor="start" x="84" y="-99.2" font-family="Courier,monospace" font-size="11.00">«abstract»</text>
<text text-anchor="start" x="40" y="-87.2" font-family="Courier,monospace" font-size="11.00">AbstractOutputProcessor</text>
</g>
<!-- \\SSamnaniLib\\Output\\StandardOutputStringProcessor&#45;&gt;\\SSamnaniLib\\Output\\AbstractOutputProcessor -->
<g id="edge2" class="edge"><title>\\SSamnaniLib\\Output\\StandardOutputStringProcessor&#45;&gt;\\SSamnaniLib\\Output\\AbstractOutputProcessor</title>
<path fill="none" stroke="black" d="M275.944,-96C255.606,-96 234.398,-96 214.39,-96"/>
<polygon fill="none" stroke="black" points="214.361,-92.5001 204.361,-96 214.361,-99.5001 214.361,-92.5001"/>
</g>
<!-- \\SSamnaniLib\\HelloWorld -->
<g id="node4" class="node"><title>\\SSamnaniLib\\HelloWorld</title>
<polygon fill="none" stroke="black" points="424,-60 340,-60 340,-24 424,-24 424,-60"/>
<text text-anchor="middle" x="382" y="-39.2" font-family="Courier,monospace" font-size="11.00">HelloWorld</text>
</g>
</g>
</svg>
