<?xml version="1.0" encoding="UTF-8" standalone="no"?>
<!DOCTYPE svg PUBLIC "-//W3C//DTD SVG 1.1//EN"
 "http://www.w3.org/Graphics/SVG/1.1/DTD/svg11.dtd">
<!-- Generated by graphviz version 2.38.0 (20140413.2041)
 -->
<!-- Title: G Pages: 1 -->
<svg width="467pt" height="410pt"
 viewBox="0.00 0.00 467.00 410.00" xmlns="http://www.w3.org/2000/svg" xmlns:xlink="http://www.w3.org/1999/xlink">
<g id="graph0" class="graph" transform="scale(1 1) rotate(0) translate(4 406)">
<title>G</title>
<polygon fill="white" stroke="none" points="-4,4 -4,-406 463,-406 463,4 -4,4"/>
<g id="clust1" class="cluster"><title>cluster_Global</title>
<path fill="none" stroke="gray" d="M20,-8C20,-8 439,-8 439,-8 445,-8 451,-14 451,-20 451,-20 451,-382 451,-382 451,-388 445,-394 439,-394 439,-394 20,-394 20,-394 14,-394 8,-388 8,-382 8,-382 8,-20 8,-20 8,-14 14,-8 20,-8"/>
<text text-anchor="middle" x="229.5" y="-381.2" font-family="Times,serif" font-size="11.00" fill="gray">Global</text>
</g>
<g id="clust2" class="cluster"><title>cluster_\SSamnaniLib</title>
<path fill="none" stroke="gray" d="M28,-16C28,-16 431,-16 431,-16 437,-16 443,-22 443,-28 443,-28 443,-354 443,-354 443,-360 437,-366 431,-366 431,-366 28,-366 28,-366 22,-366 16,-360 16,-354 16,-354 16,-28 16,-28 16,-22 22,-16 28,-16"/>
<text text-anchor="middle" x="229.5" y="-353.2" font-family="Times,serif" font-size="11.00" fill="gray">SSamnaniLib</text>
</g>
<g id="clust3" class="cluster"><title>cluster_\SSamnaniLib\Processor</title>
<path fill="none" stroke="gray" d="M225,-104C225,-104 423,-104 423,-104 429,-104 435,-110 435,-116 435,-116 435,-326 435,-326 435,-332 429,-338 423,-338 423,-338 225,-338 225,-338 219,-338 213,-332 213,-326 213,-326 213,-116 213,-116 213,-110 219,-104 225,-104"/>
<text text-anchor="middle" x="324" y="-325.2" font-family="Times,serif" font-size="11.00" fill="gray">Processor</text>
</g>
<g id="clust4" class="cluster"><title>cluster_\SSamnaniLib\Output</title>
<path fill="none" stroke="gray" d="M58.5,-24C58.5,-24 362,-24 362,-24 368,-24 374,-30 374,-36 374,-36 374,-84 374,-84 374,-90 368,-96 362,-96 362,-96 58.5,-96 58.5,-96 52.5,-96 46.5,-90 46.5,-84 46.5,-84 46.5,-36 46.5,-36 46.5,-30 52.5,-24 58.5,-24"/>
<text text-anchor="middle" x="210.25" y="-83.2" font-family="Times,serif" font-size="11.00" fill="gray">Output</text>
</g>
<!-- \\SSamnaniLib\\Processor\\UppercaseStringProcessor -->
<g id="node1" class="node"><title>\\SSamnaniLib\\Processor\\UppercaseStringProcessor</title>
<polygon fill="none" stroke="black" points="413.5,-310 234.5,-310 234.5,-274 413.5,-274 413.5,-310"/>
<text text-anchor="middle" x="324" y="-289.2" font-family="Courier,monospace" font-size="11.00">UppercaseStringProcessor</text>
</g>
<!-- \\SSamnaniLib\\IStringProcessor -->
<g id="node7" class="node"><title>\\SSamnaniLib\\IStringProcessor</title>
<polygon fill="none" stroke="black" points="149,-229 24,-229 24,-193 149,-193 149,-229"/>
<text text-anchor="middle" x="86.5" y="-208.2" font-family="Courier,monospace" font-size="11.00">IStringProcessor</text>
</g>
<!-- \\SSamnaniLib\\Processor\\UppercaseStringProcessor&#45;&gt;\\SSamnaniLib\\IStringProcessor -->
<g id="edge1" class="edge"><title>\\SSamnaniLib\\Processor\\UppercaseStringProcessor&#45;&gt;\\SSamnaniLib\\IStringProcessor</title>
<path fill="none" stroke="black" stroke-dasharray="1,5" d="M242.649,-273.921C232.594,-271.178 222.508,-268.188 213,-265 186.415,-256.086 157.622,-243.89 134.329,-233.344"/>
<polygon fill="none" stroke="black" points="135.584,-230.069 125.034,-229.092 132.671,-236.435 135.584,-230.069"/>
</g>
<!-- \\SSamnaniLib\\Processor\\AlternateCaseStringProcessor -->
<g id="node2" class="node"><title>\\SSamnaniLib\\Processor\\AlternateCaseStringProcessor</title>
<polygon fill="none" stroke="black" points="427,-256 221,-256 221,-220 427,-220 427,-256"/>
<text text-anchor="middle" x="324" y="-235.2" font-family="Courier,monospace" font-size="11.00">AlternateCaseStringProcessor</text>
</g>
<!-- \\SSamnaniLib\\Processor\\AlternateCaseStringProcessor&#45;&gt;\\SSamnaniLib\\IStringProcessor -->
<g id="edge2" class="edge"><title>\\SSamnaniLib\\Processor\\AlternateCaseStringProcessor&#45;&gt;\\SSamnaniLib\\IStringProcessor</title>
<path fill="none" stroke="black" stroke-dasharray="1,5" d="M220.734,-226.275C200.016,-223.9 178.647,-221.45 159.253,-219.226"/>
<polygon fill="none" stroke="black" points="159.639,-215.748 149.305,-218.086 158.841,-222.702 159.639,-215.748"/>
</g>
<!-- \\SSamnaniLib\\Processor\\CSVStringProcessor -->
<g id="node3" class="node"><title>\\SSamnaniLib\\Processor\\CSVStringProcessor</title>
<polygon fill="none" stroke="black" points="393,-202 255,-202 255,-166 393,-166 393,-202"/>
<text text-anchor="middle" x="324" y="-181.2" font-family="Courier,monospace" font-size="11.00">CSVStringProcessor</text>
</g>
<!-- \\SSamnaniLib\\Processor\\CSVStringProcessor&#45;&gt;\\SSamnaniLib\\IStringProcessor -->
<g id="edge3" class="edge"><title>\\SSamnaniLib\\Processor\\CSVStringProcessor&#45;&gt;\\SSamnaniLib\\IStringProcessor</title>
<path fill="none" stroke="black" stroke-dasharray="1,5" d="M254.884,-191.81C224.86,-195.252 189.567,-199.298 159.148,-202.786"/>
<polygon fill="none" stroke="black" points="158.57,-199.329 149.034,-203.945 159.367,-206.283 158.57,-199.329"/>
</g>
<!-- \\SSamnaniLib\\Processor\\BasicStringProcessor -->
<g id="node4" class="node"><title>\\SSamnaniLib\\Processor\\BasicStringProcessor</title>
<polygon fill="none" stroke="black" points="400,-148 248,-148 248,-112 400,-112 400,-148"/>
<text text-anchor="middle" x="324" y="-127.2" font-family="Courier,monospace" font-size="11.00">BasicStringProcessor</text>
</g>
<!-- \\SSamnaniLib\\Processor\\BasicStringProcessor&#45;&gt;\\SSamnaniLib\\IStringProcessor -->
<g id="edge4" class="edge"><title>\\SSamnaniLib\\Processor\\BasicStringProcessor&#45;&gt;\\SSamnaniLib\\IStringProcessor</title>
<path fill="none" stroke="black" stroke-dasharray="1,5" d="M247.967,-146.65C236.172,-149.774 224.186,-153.249 213,-157 186.415,-165.914 157.622,-178.11 134.329,-188.656"/>
<polygon fill="none" stroke="black" points="132.671,-185.565 125.034,-192.908 135.584,-191.931 132.671,-185.565"/>
</g>
<!-- \\SSamnaniLib\\Output\\FileWriter -->
<g id="node5" class="node"><title>\\SSamnaniLib\\Output\\FileWriter</title>
<polygon fill="none" stroke="black" points="366,-68 282,-68 282,-32 366,-32 366,-68"/>
<text text-anchor="middle" x="324" y="-47.2" font-family="Courier,monospace" font-size="11.00">FileWriter</text>
</g>
<!-- \\SSamnaniLib\\Output\\IWriter -->
<g id="node6" class="node"><title>\\SSamnaniLib\\Output\\IWriter</title>
<polygon fill="none" stroke="black" points="118.5,-68 54.5,-68 54.5,-32 118.5,-32 118.5,-68"/>
<text text-anchor="middle" x="86.5" y="-47.2" font-family="Courier,monospace" font-size="11.00">IWriter</text>
</g>
<!-- \\SSamnaniLib\\Output\\FileWriter&#45;&gt;\\SSamnaniLib\\Output\\IWriter -->
<g id="edge5" class="edge"><title>\\SSamnaniLib\\Output\\FileWriter&#45;&gt;\\SSamnaniLib\\Output\\IWriter</title>
<path fill="none" stroke="black" stroke-dasharray="1,5" d="M281.979,-50C239.003,-50 171.876,-50 128.797,-50"/>
<polygon fill="none" stroke="black" points="128.659,-46.5001 118.659,-50 128.659,-53.5001 128.659,-46.5001"/>
</g>
</g>
</svg>
