<?xml version="1.0" encoding="UTF-8" standalone="no"?>
<!DOCTYPE svg PUBLIC "-//W3C//DTD SVG 1.1//EN"
 "http://www.w3.org/Graphics/SVG/1.1/DTD/svg11.dtd">
<!-- Generated by graphviz version 2.38.0 (20140413.2041)
 -->
<!-- Title: G Pages: 1 -->
<svg width="528pt" height="556pt"
 viewBox="0.00 0.00 528.00 556.00" xmlns="http://www.w3.org/2000/svg" xmlns:xlink="http://www.w3.org/1999/xlink">
<g id="graph0" class="graph" transform="scale(1 1) rotate(0) translate(4 552)">
<title>G</title>
<polygon fill="white" stroke="none" points="-4,4 -4,-552 524,-552 524,4 -4,4"/>
<g id="clust1" class="cluster"><title>cluster_Global</title>
<path fill="none" stroke="gray" d="M20,-8C20,-8 500,-8 500,-8 506,-8 512,-14 512,-20 512,-20 512,-528 512,-528 512,-534 506,-540 500,-540 500,-540 20,-540 20,-540 14,-540 8,-534 8,-528 8,-528 8,-20 8,-20 8,-14 14,-8 20,-8"/>
<text text-anchor="middle" x="260" y="-527.2" font-family="Times,serif" font-size="11.00" fill="gray">Global</text>
</g>
<g id="clust2" class="cluster"><title>cluster_\SSamnaniLib</title>
<path fill="none" stroke="gray" d="M28,-62C28,-62 492,-62 492,-62 498,-62 504,-68 504,-74 504,-74 504,-500 504,-500 504,-506 498,-512 492,-512 492,-512 28,-512 28,-512 22,-512 16,-506 16,-500 16,-500 16,-74 16,-74 16,-68 22,-62 28,-62"/>
<text text-anchor="middle" x="260" y="-499.2" font-family="Times,serif" font-size="11.00" fill="gray">SSamnaniLib</text>
</g>
<g id="clust3" class="cluster"><title>cluster_\SSamnaniLib\Processor</title>
<path fill="none" stroke="gray" d="M283,-250C283,-250 481,-250 481,-250 487,-250 493,-256 493,-262 493,-262 493,-472 493,-472 493,-478 487,-484 481,-484 481,-484 283,-484 283,-484 277,-484 271,-478 271,-472 271,-472 271,-262 271,-262 271,-256 277,-250 283,-250"/>
<text text-anchor="middle" x="382" y="-471.2" font-family="Times,serif" font-size="11.00" fill="gray">Processor</text>
</g>
<g id="clust4" class="cluster"><title>cluster_\SSamnaniLib\Output</title>
<path fill="none" stroke="gray" d="M36,-116C36,-116 484,-116 484,-116 490,-116 496,-122 496,-128 496,-128 496,-230 496,-230 496,-236 490,-242 484,-242 484,-242 36,-242 36,-242 30,-242 24,-236 24,-230 24,-230 24,-128 24,-128 24,-122 30,-116 36,-116"/>
<text text-anchor="middle" x="260" y="-229.2" font-family="Times,serif" font-size="11.00" fill="gray">Output</text>
</g>
<!-- \\SSamnaniLib\\Processor\\UppercaseStringProcessor -->
<g id="node1" class="node"><title>\\SSamnaniLib\\Processor\\UppercaseStringProcessor</title>
<polygon fill="none" stroke="black" points="471.5,-456 292.5,-456 292.5,-420 471.5,-420 471.5,-456"/>
<text text-anchor="middle" x="382" y="-435.2" font-family="Courier,monospace" font-size="11.00">UppercaseStringProcessor</text>
</g>
<!-- \\SSamnaniLib\\IStringProcessor -->
<g id="node10" class="node"><title>\\SSamnaniLib\\IStringProcessor</title>
<polygon fill="none" stroke="black" points="180.5,-375 55.5,-375 55.5,-339 180.5,-339 180.5,-375"/>
<text text-anchor="middle" x="118" y="-354.2" font-family="Courier,monospace" font-size="11.00">IStringProcessor</text>
</g>
<!-- \\SSamnaniLib\\Processor\\UppercaseStringProcessor&#45;&gt;\\SSamnaniLib\\IStringProcessor -->
<g id="edge1" class="edge"><title>\\SSamnaniLib\\Processor\\UppercaseStringProcessor&#45;&gt;\\SSamnaniLib\\IStringProcessor</title>
<path fill="none" stroke="black" stroke-dasharray="1,5" d="M303.211,-419.943C292.347,-417.119 281.36,-414.103 271,-411 238.944,-401.398 203.697,-388.995 175.222,-378.497"/>
<polygon fill="none" stroke="black" points="176.432,-375.213 165.839,-375.017 173.998,-381.777 176.432,-375.213"/>
</g>
<!-- \\SSamnaniLib\\Processor\\AlternateCaseStringProcessor -->
<g id="node2" class="node"><title>\\SSamnaniLib\\Processor\\AlternateCaseStringProcessor</title>
<polygon fill="none" stroke="black" points="485,-402 279,-402 279,-366 485,-366 485,-402"/>
<text text-anchor="middle" x="382" y="-381.2" font-family="Courier,monospace" font-size="11.00">AlternateCaseStringProcessor</text>
</g>
<!-- \\SSamnaniLib\\Processor\\AlternateCaseStringProcessor&#45;&gt;\\SSamnaniLib\\IStringProcessor -->
<g id="edge2" class="edge"><title>\\SSamnaniLib\\Processor\\AlternateCaseStringProcessor&#45;&gt;\\SSamnaniLib\\IStringProcessor</title>
<path fill="none" stroke="black" stroke-dasharray="1,5" d="M278.954,-373.484C249.523,-370.451 218.04,-367.206 190.857,-364.405"/>
<polygon fill="none" stroke="black" points="190.969,-360.898 180.663,-363.355 190.251,-367.861 190.969,-360.898"/>
</g>
<!-- \\SSamnaniLib\\Processor\\CSVStringProcessor -->
<g id="node3" class="node"><title>\\SSamnaniLib\\Processor\\CSVStringProcessor</title>
<polygon fill="none" stroke="black" points="451,-348 313,-348 313,-312 451,-312 451,-348"/>
<text text-anchor="middle" x="382" y="-327.2" font-family="Courier,monospace" font-size="11.00">CSVStringProcessor</text>
</g>
<!-- \\SSamnaniLib\\Processor\\CSVStringProcessor&#45;&gt;\\SSamnaniLib\\IStringProcessor -->
<g id="edge3" class="edge"><title>\\SSamnaniLib\\Processor\\CSVStringProcessor&#45;&gt;\\SSamnaniLib\\IStringProcessor</title>
<path fill="none" stroke="black" stroke-dasharray="1,5" d="M312.847,-337.023C275.267,-340.896 228.645,-345.701 190.542,-349.627"/>
<polygon fill="none" stroke="black" points="190.132,-346.151 180.544,-350.658 190.85,-353.114 190.132,-346.151"/>
</g>
<!-- \\SSamnaniLib\\Processor\\BasicStringProcessor -->
<g id="node4" class="node"><title>\\SSamnaniLib\\Processor\\BasicStringProcessor</title>
<polygon fill="none" stroke="black" points="458,-294 306,-294 306,-258 458,-258 458,-294"/>
<text text-anchor="middle" x="382" y="-273.2" font-family="Courier,monospace" font-size="11.00">BasicStringProcessor</text>
</g>
<!-- \\SSamnaniLib\\Processor\\BasicStringProcessor&#45;&gt;\\SSamnaniLib\\IStringProcessor -->
<g id="edge4" class="edge"><title>\\SSamnaniLib\\Processor\\BasicStringProcessor&#45;&gt;\\SSamnaniLib\\IStringProcessor</title>
<path fill="none" stroke="black" stroke-dasharray="1,5" d="M305.875,-293.368C294.148,-296.388 282.208,-299.643 271,-303 238.944,-312.602 203.697,-325.005 175.222,-335.503"/>
<polygon fill="none" stroke="black" points="173.998,-332.223 165.839,-338.983 176.432,-338.787 173.998,-332.223"/>
</g>
<!-- \\SSamnaniLib\\Output\\AbstractWriter -->
<g id="node5" class="node"><title>\\SSamnaniLib\\Output\\AbstractWriter</title>
<polygon fill="none" stroke="black" points="173.5,-214 62.5,-214 62.5,-178 173.5,-178 173.5,-214"/>
<text text-anchor="start" x="84" y="-199.2" font-family="Courier,monospace" font-size="11.00">«abstract»</text>
<text text-anchor="start" x="70.5" y="-187.2" font-family="Courier,monospace" font-size="11.00">AbstractWriter</text>
</g>
<!-- \\SSamnaniLib\\Output\\FileWriter -->
<g id="node6" class="node"><title>\\SSamnaniLib\\Output\\FileWriter</title>
<polygon fill="none" stroke="black" points="424,-214 340,-214 340,-178 424,-178 424,-214"/>
<text text-anchor="middle" x="382" y="-193.2" font-family="Courier,monospace" font-size="11.00">FileWriter</text>
</g>
<!-- \\SSamnaniLib\\Output\\FileWriter&#45;&gt;\\SSamnaniLib\\Output\\AbstractWriter -->
<g id="edge5" class="edge"><title>\\SSamnaniLib\\Output\\FileWriter&#45;&gt;\\SSamnaniLib\\Output\\AbstractWriter</title>
<path fill="none" stroke="black" d="M339.774,-196C297.933,-196 232.549,-196 183.779,-196"/>
<polygon fill="none" stroke="black" points="183.639,-192.5 173.639,-196 183.639,-199.5 183.639,-192.5"/>
</g>
<!-- \\SSamnaniLib\\Output\\StandardOutputStringProcessor -->
<g id="node7" class="node"><title>\\SSamnaniLib\\Output\\StandardOutputStringProcessor</title>
<polygon fill="none" stroke="black" points="488,-160 276,-160 276,-124 488,-124 488,-160"/>
<text text-anchor="middle" x="382" y="-139.2" font-family="Courier,monospace" font-size="11.00">StandardOutputStringProcessor</text>
</g>
<!-- \\SSamnaniLib\\Output\\AbstractOutputProcessor -->
<g id="node8" class="node"><title>\\SSamnaniLib\\Output\\AbstractOutputProcessor</title>
<polygon fill="none" stroke="black" points="204,-160 32,-160 32,-124 204,-124 204,-160"/>
<text text-anchor="start" x="84" y="-145.2" font-family="Courier,monospace" font-size="11.00">«abstract»</text>
<text text-anchor="start" x="40" y="-133.2" font-family="Courier,monospace" font-size="11.00">AbstractOutputProcessor</text>
</g>
<!-- \\SSamnaniLib\\Output\\StandardOutputStringProcessor&#45;&gt;\\SSamnaniLib\\Output\\AbstractOutputProcessor -->
<g id="edge6" class="edge"><title>\\SSamnaniLib\\Output\\StandardOutputStringProcessor&#45;&gt;\\SSamnaniLib\\Output\\AbstractOutputProcessor</title>
<path fill="none" stroke="black" d="M275.944,-142C255.606,-142 234.398,-142 214.39,-142"/>
<polygon fill="none" stroke="black" points="214.361,-138.5 204.361,-142 214.361,-145.5 214.361,-138.5"/>
</g>
<!-- \\SSamnaniLib\\HelloWorld -->
<g id="node9" class="node"><title>\\SSamnaniLib\\HelloWorld</title>
<polygon fill="none" stroke="black" points="424,-106 340,-106 340,-70 424,-70 424,-106"/>
<text text-anchor="middle" x="382" y="-85.2" font-family="Courier,monospace" font-size="11.00">HelloWorld</text>
</g>
<!-- \\IWriter -->
<g id="node11" class="node"><title>\\IWriter</title>
<polygon fill="none" stroke="black" points="414,-52 350,-52 350,-16 414,-16 414,-52"/>
<text text-anchor="middle" x="382" y="-31.2" font-family="Courier,monospace" font-size="11.00">IWriter</text>
</g>
</g>
</svg>
